<?xml version="1.0" standalone="no"?>
<!DOCTYPE svg PUBLIC "-//W3C//DTD SVG 20010904//EN"
 "http://www.w3.org/TR/2001/REC-SVG-20010904/DTD/svg10.dtd">
<svg version="1.0" xmlns="http://www.w3.org/2000/svg"
 width="642.000000pt" height="642.000000pt" viewBox="0 0 642.000000 642.000000"
 preserveAspectRatio="xMidYMid meet">
<metadata>
Created by potrace 1.14, written by Peter Selinger 2001-2017
</metadata>
<g transform="translate(0.000000,642.000000) scale(0.100000,-0.100000)"
fill="#000000" stroke="none">
<path d="M1766 5909 c-16 -10 -33 -16 -37 -13 -4 2 -9 0 -11 -6 -2 -6 -13 -12
-26 -15 -25 -4 -52 -28 -52 -45 0 -6 -4 -8 -10 -5 -5 3 -10 0 -10 -7 0 -7 -9
-24 -20 -38 -11 -14 -20 -33 -20 -42 0 -10 -4 -18 -9 -18 -8 0 -21 -30 -25
-55 -2 -17 -37 -18 -55 -1 -9 8 -25 15 -36 15 -11 0 -33 3 -50 6 -64 12 -160
11 -185 -2 -14 -7 -30 -13 -37 -13 -15 0 -58 -42 -66 -64 -4 -9 -11 -16 -17
-16 -17 0 -11 -52 8 -73 12 -14 14 -21 5 -24 -7 -3 -22 -22 -34 -43 -12 -22
-26 -37 -30 -34 -14 9 -37 -38 -33 -68 4 -38 41 -93 71 -109 13 -7 23 -18 23
-24 0 -10 49 -40 58 -36 1 1 15 -5 31 -13 16 -9 31 -13 34 -10 3 3 15 1 26 -5
17 -10 19 -15 9 -31 -7 -10 -16 -18 -21 -17 -5 1 -17 -13 -26 -30 -9 -18 -22
-33 -29 -33 -7 0 -11 -4 -8 -8 2 -4 1 -14 -5 -22 -6 -11 -9 -11 -10 -2 -2 17
-4 23 -18 57 -7 17 -12 32 -12 35 0 3 -7 9 -16 14 -13 7 -13 10 -2 17 11 7 11
9 -3 9 -9 0 -19 -6 -21 -12 -3 -8 -6 -6 -6 5 -1 9 -5 17 -11 17 -5 0 -17 14
-26 32 -23 44 -107 126 -138 134 -14 3 -26 12 -26 20 0 8 -10 14 -23 14 -13 0
-27 4 -33 10 -5 5 -25 11 -44 14 -19 2 -46 8 -60 13 -30 10 -51 10 -67 0 -7
-5 -17 -6 -23 -2 -22 13 -58 -7 -64 -36 -3 -16 -5 -30 -4 -32 1 -1 -4 -12 -10
-24 -9 -16 -9 -24 -1 -29 8 -4 7 -9 -2 -15 -8 -5 -9 -9 -3 -9 6 0 11 -17 12
-37 1 -20 6 -39 11 -42 5 -3 11 -19 15 -36 10 -56 38 -150 47 -159 5 -6 9 -18
9 -27 0 -9 7 -20 16 -23 8 -3 13 -10 10 -15 -9 -14 78 -99 108 -107 14 -3 26
-10 26 -14 0 -7 43 -20 81 -25 8 -1 27 -10 42 -19 14 -10 28 -17 32 -17 14 3
55 -12 55 -20 0 -5 8 -9 19 -9 10 0 35 -18 55 -40 20 -22 40 -40 46 -40 5 0
10 -5 10 -11 0 -14 47 -59 60 -59 5 0 12 -11 16 -25 3 -14 10 -22 15 -19 5 3
9 -2 9 -11 0 -9 9 -30 21 -46 22 -31 9 -40 -24 -15 -11 9 -35 12 -67 9 -37 -3
-50 -1 -50 9 0 9 -3 9 -10 -2 -5 -8 -10 -10 -10 -5 0 12 -46 34 -84 41 -14 2
-38 10 -53 16 -16 6 -41 13 -57 15 -17 2 -33 7 -36 13 -3 5 -16 11 -27 13 -12
2 -36 21 -52 43 -16 21 -36 46 -44 55 -7 8 -17 23 -20 33 -4 10 -12 14 -19 10
-8 -5 -9 -2 -5 9 3 10 3 17 -2 17 -4 0 -27 18 -52 41 -59 53 -89 66 -106 43
-7 -10 -13 -14 -13 -8 0 8 -25 26 -87 60 -13 7 -23 10 -23 7 0 -3 -7 0 -15 7
-29 24 -268 30 -291 7 -3 -3 -12 -3 -20 0 -8 3 -21 0 -29 -7 -8 -7 -15 -9 -15
-4 0 5 -6 -1 -14 -12 -27 -39 6 -225 44 -249 6 -4 8 -10 5 -14 -6 -10 85 -107
97 -103 4 1 8 -3 8 -10 0 -6 3 -8 7 -5 3 4 12 -2 20 -13 8 -11 20 -17 28 -14
8 4 15 1 15 -6 0 -6 4 -9 9 -5 5 3 12 1 15 -4 3 -4 19 -11 36 -14 27 -6 29 -9
20 -31 -8 -21 -6 -26 18 -34 15 -5 35 -8 45 -6 9 1 17 -1 17 -5 0 -5 45 -8
100 -8 55 1 100 3 100 6 0 3 20 7 44 8 25 1 65 11 89 22 24 11 58 23 75 26 17
3 41 9 54 14 32 11 94 7 113 -9 8 -7 15 -9 15 -5 0 4 6 3 13 -3 8 -7 18 -7 27
-2 10 6 21 4 32 -7 10 -9 18 -13 18 -10 0 3 14 1 31 -5 18 -6 28 -15 25 -24
-7 -18 10 -22 76 -16 54 4 59 2 94 -32 20 -20 33 -36 29 -36 -4 0 4 -11 19
-25 14 -13 26 -28 26 -34 0 -12 -27 -8 -41 6 -7 7 -23 7 -49 1 -28 -8 -51 -6
-89 5 -28 8 -48 11 -45 6 7 -11 1 -11 -29 0 -14 6 -28 7 -31 4 -8 -9 -56 -10
-56 -2 0 3 -7 6 -15 6 -8 0 -15 -4 -15 -8 0 -4 -11 -2 -24 5 -17 8 -42 10 -76
6 -35 -4 -59 -2 -77 7 -14 7 -32 13 -39 13 -8 0 -14 5 -14 11 0 5 -5 7 -10 4
-6 -3 -13 0 -16 8 -3 8 -21 14 -42 15 -60 3 -125 1 -133 -4 -4 -2 -10 2 -12 8
-4 10 -6 10 -6 0 -1 -13 -40 -33 -81 -39 -13 -2 -28 -9 -31 -15 -4 -6 -12 -7
-18 -4 -6 4 -11 2 -11 -5 0 -7 -3 -9 -6 -6 -4 3 -16 1 -28 -5 -11 -7 -23 -13
-26 -13 -21 -5 -72 -45 -82 -65 -7 -14 -27 -39 -44 -56 l-33 -30 31 -29 c28
-26 29 -30 12 -35 -18 -7 -17 -8 3 -14 11 -4 24 -13 27 -21 3 -8 14 -15 25
-15 10 0 22 -7 25 -16 4 -9 9 -14 12 -11 3 3 31 -4 62 -16 68 -24 172 -29 226
-10 21 7 49 13 62 13 14 0 23 5 22 13 -2 6 3 11 10 9 7 -1 24 10 38 25 14 16
29 28 33 28 9 0 36 27 40 40 10 30 15 36 27 31 8 -3 14 -2 14 3 0 7 15 14 50
22 3 0 10 5 17 11 7 5 17 7 23 3 5 -3 10 -1 10 5 0 6 5 8 12 4 6 -4 17 1 24
11 8 10 17 16 20 12 4 -3 15 -2 25 4 13 7 19 6 19 -1 0 -7 6 -8 19 -1 10 6 21
8 25 4 8 -9 135 -9 129 0 -2 4 1 7 7 7 7 0 14 -8 17 -18 5 -22 74 -43 97 -30
10 6 16 5 16 -1 0 -6 9 -8 23 -3 37 12 62 8 61 -11 -1 -9 2 -17 7 -17 5 0 9
-11 9 -25 0 -14 4 -25 8 -25 7 0 37 -53 44 -78 1 -4 10 -16 20 -27 10 -10 16
-25 14 -31 -4 -10 34 -62 87 -116 9 -10 17 -21 17 -25 0 -3 6 -14 13 -22 8 -9
24 -45 37 -81 12 -36 30 -76 40 -90 18 -28 50 -94 50 -105 0 -4 -6 -2 -14 4
-8 7 -16 8 -18 3 -1 -5 -24 -15 -50 -24 -46 -15 -48 -14 -48 3 0 11 -5 19 -10
19 -6 0 -9 3 -9 8 4 24 -4 41 -21 47 -11 3 -20 13 -20 21 0 8 -4 14 -10 14 -5
0 -10 7 -10 15 0 8 -7 15 -15 15 -7 0 -19 8 -24 18 -6 9 -11 13 -11 9 0 -4
-10 2 -22 13 -12 11 -28 18 -35 16 -6 -3 -13 0 -15 6 -4 12 -31 20 -65 19 -13
0 -23 3 -23 9 0 16 -39 2 -65 -24 -27 -27 -45 -33 -45 -16 0 6 -9 10 -19 10
-11 0 -23 5 -26 11 -10 15 -50 -25 -53 -53 -3 -35 -7 -52 -13 -63 -4 -5 -6
-40 -6 -76 0 -37 -2 -71 -5 -75 -2 -5 -3 -19 -3 -30 2 -17 -4 -21 -29 -22 -54
0 -171 -14 -176 -21 -9 -11 -49 -31 -63 -31 -18 0 -102 -83 -101 -100 0 -8 -2
-19 -6 -25 -3 -5 -7 -22 -8 -36 -2 -19 4 -28 24 -38 20 -9 24 -15 16 -23 -7
-7 -12 -22 -12 -35 0 -13 -5 -23 -11 -23 -5 0 -8 -4 -4 -9 3 -5 1 -12 -5 -16
-11 -7 18 -54 33 -55 5 0 22 -14 38 -31 16 -17 29 -28 29 -23 0 4 9 -2 20 -13
10 -12 28 -24 40 -28 11 -3 20 -11 20 -16 0 -6 4 -8 8 -5 5 3 21 -2 36 -10 16
-7 44 -14 62 -14 19 0 34 -4 34 -10 0 -5 7 -7 16 -3 21 8 35 -16 23 -39 -6
-10 -7 -23 -4 -28 3 -6 1 -10 -5 -10 -7 0 -8 -5 -3 -12 4 -7 9 -26 10 -43 0
-16 2 -30 3 -30 1 0 3 -13 5 -30 2 -16 5 -40 8 -53 7 -26 47 -81 47 -63 0 6 3
10 7 9 5 0 16 2 26 7 13 5 22 2 33 -14 9 -12 20 -19 25 -16 5 3 6 -2 2 -11 -4
-12 -3 -15 5 -10 7 4 15 1 18 -8 3 -9 15 -16 25 -16 10 0 19 -4 19 -9 0 -12
38 -8 65 6 11 6 26 8 34 5 8 -3 11 0 7 6 -4 7 4 14 21 18 15 4 34 12 41 18 35
27 102 92 102 99 0 10 40 49 40 38 0 -11 60 -33 60 -23 0 4 4 2 8 -5 5 -8 46
-14 115 -17 108 -4 128 1 139 35 2 6 13 13 23 14 52 6 84 19 93 39 15 34 4
175 -17 215 -10 19 -9 22 14 31 15 6 32 10 40 10 7 0 15 5 17 11 4 12 124 16
135 5 3 -3 12 -1 19 5 9 7 22 2 47 -21 19 -16 40 -30 46 -30 6 0 11 -9 11 -21
0 -11 4 -18 9 -14 5 3 12 1 16 -5 4 -6 10 -8 15 -5 5 3 13 -2 19 -12 10 -19
71 -59 71 -47 0 4 16 -9 35 -29 20 -21 40 -37 45 -37 5 0 15 -16 22 -36 14
-38 45 -57 148 -90 33 -10 90 -39 90 -46 0 -4 11 -8 24 -8 13 0 26 -4 28 -9 2
-5 10 -11 18 -13 17 -4 44 -27 38 -33 -2 -3 -27 -7 -54 -9 -27 -2 -53 -5 -59
-6 -5 -1 -12 -2 -15 0 -3 1 -34 3 -70 6 -57 3 -127 23 -195 55 -11 6 -34 12
-50 14 -17 2 -32 4 -35 5 -3 2 -8 2 -12 1 -5 0 -8 4 -8 10 0 6 -9 9 -20 6 -11
-3 -20 -2 -20 2 0 4 -6 8 -12 8 -7 0 -28 4 -47 7 -26 5 -32 4 -28 -7 4 -12 -6
-15 -51 -14 -85 0 -162 -5 -162 -12 0 -6 -66 -31 -87 -33 -7 -1 -15 -10 -19
-20 -3 -11 -10 -18 -16 -16 -5 2 -31 -17 -56 -42 -44 -42 -47 -48 -46 -92 1
-27 3 -51 4 -55 1 -5 2 -11 1 -15 0 -4 10 -10 23 -14 14 -3 27 -13 30 -21 4
-8 13 -13 21 -9 8 3 18 -1 22 -8 13 -22 74 -55 91 -48 10 3 13 1 8 -6 -5 -8 0
-12 13 -13 25 -2 29 -3 63 -17 15 -6 44 -12 65 -14 21 -2 41 -7 45 -13 5 -7 8
-6 8 1 0 6 26 9 71 7 71 -2 84 -6 84 -24 0 -12 8 -11 45 5 17 7 27 15 23 19
-3 4 -1 7 6 7 7 0 24 9 38 20 14 11 29 17 34 14 5 -3 19 4 31 15 12 12 27 21
32 21 11 0 56 60 56 74 0 4 7 14 15 23 8 8 12 20 8 26 -4 6 0 8 9 4 9 -3 24 2
35 12 22 21 50 29 129 37 32 3 63 8 68 12 16 9 46 10 52 0 8 -13 53 -9 79 8
24 16 45 11 117 -27 10 -5 25 -9 33 -9 8 0 15 -4 15 -9 0 -5 8 -12 18 -14 14
-4 14 -6 -5 -12 -13 -4 -23 -12 -23 -17 0 -5 -4 -7 -9 -3 -13 7 -53 -46 -47
-62 3 -8 0 -13 -7 -11 -15 3 -117 -91 -117 -109 0 -6 -9 -9 -20 -6 -11 3 -20
0 -20 -6 0 -6 -7 -11 -15 -11 -8 0 -15 -7 -15 -15 0 -9 -8 -19 -17 -22 -10 -4
-20 -10 -23 -14 -3 -4 -37 -8 -75 -10 -39 -1 -75 -6 -82 -11 -7 -5 -17 -7 -23
-3 -5 3 -10 1 -10 -6 0 -7 -3 -9 -7 -6 -3 4 -17 -2 -29 -14 -13 -12 -30 -19
-38 -16 -14 6 -20 -4 -17 -25 0 -4 -9 -10 -22 -14 -22 -6 -117 -99 -117 -113
0 -4 -13 -22 -30 -41 -16 -18 -27 -37 -24 -41 3 -5 1 -9 -5 -9 -6 0 -8 -7 -5
-15 4 -8 1 -15 -6 -15 -6 0 -9 -4 -5 -9 3 -5 1 -12 -3 -15 -5 -3 -10 -18 -11
-33 0 -15 -2 -43 -4 -61 -2 -18 3 -37 10 -43 7 -6 11 -14 8 -18 -2 -4 11 -14
30 -21 19 -8 35 -18 35 -24 0 -5 3 -7 6 -3 3 3 16 2 28 -3 13 -4 29 -5 36 0 7
5 24 4 37 -1 12 -5 23 -5 23 0 0 5 12 7 28 6 15 -1 39 2 52 8 14 5 37 11 51
13 14 2 43 11 65 21 21 9 41 17 44 18 11 2 45 24 37 25 -8 0 -4 6 43 59 16 18
30 29 30 23 0 -5 10 -9 23 -8 24 1 60 34 51 47 -3 5 2 12 10 15 9 3 16 17 16
29 0 13 4 26 8 29 5 3 9 56 9 118 0 74 4 113 12 116 6 2 11 14 11 27 0 13 11
35 25 49 14 14 25 30 25 36 0 5 7 10 16 10 8 0 12 4 9 10 -3 5 3 19 13 30 17
18 43 27 89 29 7 1 12 4 10 9 -1 4 3 8 8 10 12 4 40 53 37 65 -3 11 29 -8 55
-32 12 -12 27 -21 34 -21 6 0 27 -14 46 -30 18 -17 40 -30 48 -30 8 0 15 -4
15 -9 0 -9 55 -32 73 -30 5 0 17 -9 26 -20 10 -11 29 -22 42 -23 13 -2 37 -16
53 -33 17 -16 32 -29 33 -27 2 2 9 2 16 -1 8 -3 5 -12 -11 -29 -12 -13 -22
-29 -22 -35 0 -6 -7 -16 -16 -24 -8 -7 -13 -21 -10 -31 2 -11 -2 -22 -10 -25
-8 -3 -12 -8 -9 -13 2 -4 5 -33 6 -64 2 -48 7 -62 32 -89 16 -18 26 -26 22
-19 -7 13 4 16 21 4 12 -8 28 -45 15 -38 -4 3 -7 -10 -6 -29 2 -35 21 -68 35
-60 4 2 20 1 36 -4 16 -4 41 -4 57 0 15 4 27 4 27 1 0 -4 11 -7 25 -7 14 0 25
2 25 5 0 3 17 5 38 5 24 0 36 -4 35 -12 -2 -7 2 -13 7 -13 7 0 7 -6 0 -20 -6
-12 -7 -20 -1 -20 5 0 7 -9 4 -20 -3 -12 0 -20 7 -20 6 0 10 -6 7 -12 -2 -7 2
-20 10 -30 8 -9 16 -23 17 -32 3 -19 57 -67 68 -60 4 3 16 -2 25 -11 13 -13
18 -14 24 -3 5 7 9 10 9 5 0 -4 16 2 37 13 37 20 39 20 86 -12 15 -11 27 -15
27 -8 0 6 4 8 10 5 13 -8 96 80 98 105 1 3 8 22 16 42 18 42 35 56 46 39 9
-15 57 -41 76 -41 8 0 14 -5 14 -11 0 -5 4 -7 10 -4 5 3 26 2 45 -4 20 -5 35
-6 35 0 0 5 10 5 25 -1 39 -15 83 5 83 38 0 15 2 43 5 62 3 19 6 38 6 41 1 3
11 6 24 6 25 0 57 12 72 27 12 13 14 76 2 76 -4 0 -3 9 3 20 8 14 8 20 0 20
-6 0 -9 4 -5 9 3 5 1 12 -5 16 -6 4 -7 11 -4 17 4 6 10 5 15 -3 7 -12 9 -12 9
-1 0 10 8 9 33 -6 17 -10 40 -17 50 -15 9 3 20 -3 23 -11 3 -9 10 -14 14 -11
4 3 13 -2 20 -10 7 -8 16 -12 21 -9 5 3 9 0 9 -6 0 -6 4 -8 10 -5 5 3 20 0 32
-7 13 -6 28 -12 33 -13 25 -2 81 -18 92 -27 7 -5 18 -8 25 -5 7 2 28 -5 47
-16 19 -12 31 -16 28 -10 -4 6 18 -2 48 -19 30 -16 55 -26 55 -22 0 4 9 -1 20
-11 11 -10 20 -14 20 -10 0 4 8 1 18 -8 10 -10 22 -14 25 -10 4 3 7 1 7 -6 0
-7 4 -10 8 -7 5 3 15 -4 22 -15 8 -10 21 -19 28 -19 8 0 12 -6 9 -12 -2 -7 -9
-12 -15 -11 -6 2 -13 -6 -17 -16 -5 -17 -55 -59 -55 -47 0 3 -19 -3 -42 -12
-59 -25 -154 -21 -207 8 -12 6 -21 8 -21 5 0 -3 -9 -1 -20 5 -15 8 -20 8 -20
-1 0 -8 -5 -8 -16 1 -17 15 -154 21 -154 7 0 -4 -6 -5 -12 0 -19 11 -54 4
-108 -23 -26 -13 -53 -24 -60 -24 -20 0 -110 -42 -110 -52 0 -5 -5 -6 -10 -3
-6 3 -13 -1 -16 -9 -3 -9 -10 -14 -14 -11 -4 3 -10 -2 -14 -10 -3 -8 -13 -15
-21 -15 -9 0 -13 -5 -10 -10 3 -6 -1 -10 -9 -10 -10 0 -13 -6 -10 -15 4 -9 0
-15 -7 -15 -18 -1 -48 -43 -52 -72 -1 -13 -10 -31 -20 -40 -10 -9 -18 -19 -17
-22 3 -13 -13 -71 -22 -83 -5 -7 -7 -21 -3 -33 3 -11 2 -20 -3 -20 -5 0 -7
-13 -4 -30 2 -16 8 -27 13 -24 5 3 9 0 9 -5 0 -6 13 -11 30 -11 17 0 29 -5 27
-11 -6 -30 115 -50 316 -52 67 0 77 -3 71 -16 -3 -9 -7 -22 -7 -28 0 -7 -3
-13 -7 -13 -9 0 -13 -87 -7 -160 3 -43 24 -82 40 -78 7 2 27 -12 45 -30 20
-20 41 -33 55 -32 12 1 24 1 27 0 5 -2 66 -8 132 -13 21 -2 40 -6 44 -9 3 -4
19 -2 35 4 16 5 34 8 41 6 7 -3 21 4 32 14 11 10 25 18 31 18 6 0 24 16 39 35
16 19 34 35 42 35 8 0 14 5 14 10 0 6 14 24 30 40 17 16 30 36 30 44 0 7 6 16
14 19 20 8 41 85 41 154 0 35 3 63 7 63 4 0 7 8 7 17 0 28 6 50 18 65 6 7 13
31 15 53 2 24 11 48 24 60 21 19 24 25 24 44 0 11 51 66 64 67 6 1 21 2 34 3
13 0 21 5 17 10 -3 6 1 13 9 18 8 4 16 13 17 18 4 13 26 8 49 -13 73 -68 103
-92 111 -92 6 0 8 -4 5 -8 -3 -5 8 -16 25 -26 16 -9 29 -22 29 -27 0 -6 14
-15 30 -20 17 -6 30 -17 30 -25 0 -8 5 -14 10 -14 6 0 10 -5 10 -11 0 -6 9
-22 20 -36 l20 -26 0 472 c0 539 10 486 -100 527 -33 13 -64 24 -68 25 -20 5
-38 14 -47 25 -9 11 -36 19 -95 29 -14 2 -62 5 -107 7 -46 1 -83 5 -83 8 0 9
-43 6 -57 -3 -7 -5 -13 -4 -13 1 0 6 -13 9 -30 8 -16 -1 -30 2 -30 7 0 4 -4 6
-9 3 -12 -8 -71 14 -71 25 0 5 -8 9 -18 9 -10 0 -22 3 -26 7 -8 8 -29 11 -131
18 -76 5 -115 9 -115 12 0 10 66 67 79 68 31 3 61 17 56 26 -4 5 1 9 9 9 8 0
20 9 26 19 5 11 28 30 50 42 22 13 40 26 40 31 0 4 15 23 34 41 18 19 37 43
40 55 7 20 9 20 51 8 24 -8 56 -23 72 -33 15 -11 34 -18 41 -16 6 3 12 0 12
-6 0 -6 7 -8 14 -5 8 3 25 -4 37 -15 21 -19 24 -20 41 -4 10 9 18 22 18 30 0
7 5 13 10 13 6 0 10 6 9 12 -4 34 1 40 29 33 15 -4 41 -9 57 -12 17 -3 36 -8
44 -13 17 -9 64 29 57 47 -3 7 -2 13 3 13 5 0 8 15 8 33 0 17 1 43 2 57 1 14
-1 57 -4 95 -4 39 -8 82 -8 98 -1 15 -5 27 -9 27 -5 0 -8 10 -8 22 0 12 -3 19
-6 16 -3 -4 -15 3 -26 14 l-20 20 22 20 c12 11 24 17 27 14 3 -3 26 11 52 31
57 46 106 93 96 93 -5 0 0 9 10 20 10 11 15 20 11 20 -3 0 0 13 9 30 8 16 15
51 15 79 0 48 -1 50 -37 62 -21 6 -42 14 -48 18 -5 3 -21 6 -34 6 -27 1 -38
30 -19 52 7 9 7 13 -2 13 -7 0 -10 8 -8 18 8 29 -21 45 -102 59 -51 8 -163 4
-170 -6 -10 -18 -38 10 -43 44 -5 36 -45 115 -58 115 -5 0 -9 5 -9 10 0 6 -17
33 -37 61 -36 47 -79 76 -128 84 -102 16 -103 16 -124 -11 -12 -15 -21 -23
-21 -19 0 4 -7 1 -16 -6 -14 -11 -18 -11 -28 1 -6 8 -19 16 -29 18 -31 5 -119
-66 -132 -108 -3 -11 -10 -20 -15 -20 -7 0 -15 -18 -26 -60 -5 -19 -7 -141 -2
-160 4 -16 -23 -21 -34 -5 -5 6 -8 6 -8 0 0 -5 -20 -11 -44 -13 -24 -1 -54 -5
-67 -8 -13 -3 -30 -6 -36 -6 -7 -1 -13 -5 -13 -10 0 -4 -3 -7 -7 -7 -5 1 -11
0 -15 -1 -17 -5 -29 -8 -49 -9 -11 0 -17 -5 -14 -11 3 -5 1 -10 -4 -10 -6 0
-11 -9 -11 -20 0 -11 5 -20 10 -20 18 0 11 -45 -10 -63 -11 -9 -25 -17 -30
-17 -6 0 -10 -4 -10 -10 0 -5 -3 -9 -7 -9 -20 3 -34 -2 -28 -10 3 -5 1 -12 -4
-16 -11 -6 -8 -20 16 -72 7 -18 18 -33 23 -33 6 0 10 -7 10 -15 0 -8 3 -15 8
-15 13 0 62 -47 62 -59 0 -7 4 -10 9 -6 5 3 24 -8 42 -24 18 -17 40 -28 50
-26 11 2 19 0 19 -6 0 -5 9 -9 19 -9 32 0 34 -18 6 -55 -15 -19 -24 -38 -21
-44 3 -5 -1 -12 -9 -15 -13 -4 -14 -10 -5 -26 6 -11 7 -20 2 -20 -5 0 -9 -25
-9 -55 0 -30 4 -55 9 -55 5 0 6 -4 3 -10 -3 -5 1 -10 9 -10 9 0 16 -4 16 -9 0
-6 9 -9 20 -8 11 1 20 5 20 9 0 4 11 3 24 -2 13 -5 26 -6 29 -4 3 3 8 -10 12
-28 4 -18 12 -39 17 -45 6 -7 8 -13 4 -13 -3 0 -1 -11 4 -24 6 -18 5 -28 -6
-37 -8 -6 -17 -29 -20 -50 -4 -22 -10 -39 -15 -39 -5 0 -9 -6 -9 -14 0 -8 -9
-18 -20 -21 -11 -4 -18 -11 -15 -16 4 -5 1 -9 -5 -9 -6 0 -16 -11 -22 -25 -11
-24 -37 -33 -52 -18 -4 4 -26 9 -49 10 -42 3 -107 9 -118 12 -3 0 -5 19 -4 40
1 22 -3 37 -7 35 -4 -3 -8 3 -8 14 0 21 -46 47 -55 32 -4 -7 -13 -7 -24 0 -10
5 -20 8 -22 5 -2 -2 -4 18 -4 43 0 39 -3 47 -17 46 -10 -1 -18 1 -18 5 0 3
-17 6 -37 5 -21 0 -46 3 -56 8 -12 6 -17 5 -15 -4 2 -9 -10 -13 -37 -14 -53
-2 -105 -14 -105 -25 0 -5 -6 -6 -13 -3 -8 3 -38 -16 -69 -41 -59 -48 -71 -54
-62 -30 4 8 1 15 -7 15 -7 0 -9 3 -6 6 4 4 -1 14 -11 23 -10 9 -21 24 -25 34
-3 9 -14 17 -23 17 -10 0 -14 3 -11 7 7 7 -63 73 -78 73 -3 0 -15 9 -26 19
-12 11 -33 22 -47 26 -15 4 -30 12 -34 18 -6 9 -8 9 -8 0 0 -7 -6 -13 -13 -13
-8 0 -20 -11 -27 -25 -7 -14 -17 -25 -21 -25 -5 0 -6 -7 -2 -15 5 -13 2 -14
-21 -4 -36 17 -71 -1 -93 -46 -16 -33 -18 -34 -35 -18 -10 9 -18 13 -18 8 0
-4 -7 -2 -15 5 -8 6 -18 9 -23 6 -11 -7 -54 32 -48 43 3 4 6 26 7 49 2 23 6
42 10 42 4 0 10 14 14 30 4 17 15 36 26 43 10 6 19 17 19 24 0 7 6 13 14 13 7
0 16 9 19 21 3 12 10 18 16 15 5 -4 12 3 16 14 4 11 11 18 16 15 5 -4 9 -2 9
2 0 5 19 8 43 8 42 -1 86 12 98 29 4 5 12 5 18 2 6 -4 10 -4 9 1 -2 4 0 8 3 8
3 0 19 11 36 25 17 14 46 33 64 44 19 11 29 21 21 23 -6 3 -10 9 -6 14 3 5 0
9 -6 9 -7 0 -8 6 -1 19 6 10 8 21 5 24 -3 3 2 20 11 37 9 18 19 46 22 64 8 48
9 187 1 199 -4 6 -2 19 3 29 5 10 6 18 1 18 -5 0 -9 6 -9 13 -1 11 -12 71 -18
92 -17 66 -102 164 -128 148 -5 -3 -26 -7 -45 -9 -18 -2 -40 -8 -48 -15 -8 -6
-14 -9 -14 -5 0 11 -73 -30 -100 -56 -33 -32 -71 -78 -65 -78 3 0 -10 -15 -29
-34 -36 -35 -110 -172 -100 -187 3 -5 -4 -9 -15 -9 -15 0 -19 -5 -16 -20 2
-11 0 -18 -6 -15 -9 6 -12 -21 -13 -92 0 -18 -4 -33 -8 -33 -5 0 -4 -8 1 -19
6 -10 8 -20 6 -22 -8 -9 -13 -59 -6 -59 4 0 14 -19 21 -42 7 -24 20 -49 29
-56 22 -18 31 -97 14 -125 -4 -7 -8 -21 -9 -32 -2 -36 -16 -70 -40 -94 -13
-13 -21 -27 -18 -32 3 -5 -2 -9 -10 -9 -8 0 -19 8 -25 17 -5 10 -12 17 -15 16
-16 -8 -38 -1 -55 16 -11 11 -34 27 -50 36 -17 8 -31 20 -31 26 0 6 -7 9 -15
5 -8 -3 -15 -1 -15 4 0 6 -7 10 -15 10 -8 0 -15 5 -15 11 0 5 -4 8 -9 4 -5 -3
-16 1 -24 9 -8 8 -17 13 -19 10 -3 -2 -22 3 -43 12 -21 8 -49 14 -61 11 -28
-5 -34 13 -21 63 4 19 10 44 12 55 6 39 10 50 20 57 6 5 6 8 -2 8 -12 0 -12
17 0 38 5 6 6 12 3 12 -3 0 -2 10 3 23 6 15 4 26 -5 34 -13 13 -14 88 -1 110
4 6 2 13 -4 15 -8 3 -6 10 6 21 14 14 20 15 32 5 8 -7 22 -13 30 -14 8 -1 22
-6 31 -10 19 -9 55 -14 48 -7 -2 3 4 13 15 24 20 20 43 24 90 16 29 -4 69 20
72 43 2 8 7 22 12 30 15 22 16 130 1 130 -7 0 -8 3 0 8 15 10 13 114 -2 130
-16 15 -8 42 12 42 8 0 14 4 14 10 0 5 6 7 14 4 7 -3 20 1 27 9 8 7 19 12 24
10 6 -2 22 8 37 22 15 14 31 25 35 25 5 0 17 11 27 25 10 13 22 22 27 19 5 -3
9 4 9 15 0 12 4 21 8 21 17 0 12 59 -5 69 -10 6 -14 11 -10 11 9 0 -18 30 -28
30 -3 0 -16 10 -29 23 l-23 23 19 27 c11 15 26 27 34 27 21 0 15 66 -8 88 -30
30 -47 42 -58 42 -5 0 -10 6 -10 13 0 9 -109 70 -130 72 -3 0 -11 4 -17 8 -8
5 -13 3 -13 -4 0 -7 -4 -8 -12 -2 -7 5 -30 8 -50 8 -36 -2 -38 0 -39 29 0 29
-7 122 -12 172 -2 11 -10 33 -20 47 -9 14 -17 31 -17 37 0 5 -4 10 -9 10 -9 0
-24 32 -26 52 0 4 -8 17 -17 28 -10 11 -18 24 -18 29 0 14 -34 23 -56 15 -39
-12 -104 -47 -104 -56 0 -4 -4 -8 -10 -8 -5 0 -10 8 -10 17 0 9 -3 14 -6 10
-9 -9 -34 18 -34 37 0 28 -100 2 -119 -31 -6 -10 -11 -15 -11 -10 0 4 -8 -1
-17 -11 -30 -30 -85 -102 -78 -102 3 0 -1 -7 -9 -16 -9 -8 -16 -22 -16 -30 0
-8 -4 -14 -8 -14 -5 0 -9 -6 -10 -12 -1 -21 -7 -42 -13 -53 -4 -5 -5 -18 -4
-28 3 -13 -2 -17 -18 -14 -12 1 -26 5 -32 8 -14 8 -195 8 -195 0 0 -3 -16 -7
-36 -8 -20 -1 -44 -9 -53 -17 -10 -9 -23 -16 -29 -16 -7 0 -12 -4 -12 -10 0
-5 -7 -10 -15 -10 -8 0 -26 -17 -40 -37 -14 -21 -29 -37 -33 -35 -4 1 -8 -12
-9 -29 -3 -33 13 -63 28 -53 5 3 9 1 9 -4 0 -5 10 -12 22 -15 12 -4 19 -9 15
-13 -4 -4 0 -12 9 -18 13 -10 12 -16 -10 -46 -52 -72 -57 -85 -40 -109 9 -12
19 -19 24 -16 5 3 21 -13 37 -34 27 -39 60 -61 88 -61 8 0 15 -5 15 -11 0 -6
6 -9 14 -6 8 3 17 3 21 -1 4 -4 10 -7 13 -7 4 -1 18 -7 30 -14 l24 -13 -21
-22 c-22 -23 -31 -66 -35 -161 -2 -33 -4 -64 -6 -70 -1 -5 -2 -12 0 -15 1 -3
3 -16 6 -29 5 -26 32 -78 52 -99 6 -7 12 -18 12 -23 0 -6 4 -8 10 -4 5 3 18 0
29 -7 16 -10 23 -9 38 4 10 8 24 17 32 20 15 4 51 -25 51 -42 0 -5 7 -10 15
-10 8 0 15 -7 15 -15 0 -14 28 -25 63 -23 9 1 17 5 17 9 0 13 50 16 60 4 5 -6
7 -14 4 -18 -3 -3 2 -17 11 -31 10 -14 15 -26 11 -26 -3 0 3 -9 15 -21 14 -14
17 -24 10 -33 -13 -15 -11 -56 3 -75 9 -12 8 -13 -4 -6 -12 7 -13 6 -3 -7 7
-8 10 -18 6 -21 -3 -4 1 -7 11 -7 9 0 14 -4 11 -10 -3 -5 2 -24 10 -41 19 -36
28 -86 16 -93 -4 -3 -18 5 -32 17 -13 12 -33 23 -44 25 -11 2 -26 11 -32 20
-10 12 -13 12 -13 2 0 -9 -8 -6 -23 8 -13 12 -28 22 -33 22 -5 0 -22 12 -37
26 -16 14 -31 24 -34 21 -3 -3 -21 12 -41 34 -20 21 -42 39 -48 39 -7 0 -22
12 -33 26 -11 14 -29 26 -40 27 -11 0 -19 6 -18 11 1 6 -8 12 -21 14 -12 2
-27 12 -32 22 -6 11 -16 17 -24 14 -7 -3 -16 2 -19 10 -4 9 -13 16 -21 16 -8
0 -16 4 -18 9 -3 9 -113 81 -124 81 -4 0 -14 8 -23 18 -9 10 -24 21 -35 25
-10 4 -16 13 -13 22 4 9 1 12 -9 8 -7 -3 -14 -1 -14 5 0 5 -29 41 -65 78 -36
38 -72 76 -80 85 -8 9 -15 19 -15 22 0 4 -19 26 -42 50 -48 49 -50 52 -97 121
-24 37 -31 56 -26 75 3 14 6 32 7 39 1 6 5 12 9 12 3 0 6 27 4 60 -2 36 1 57
7 54 5 -4 8 2 7 12 -2 11 11 33 29 51 18 17 32 39 32 48 0 10 5 13 12 9 7 -5
9 -2 5 9 -4 11 1 18 16 23 12 5 25 7 30 6 4 -1 7 2 7 8 0 5 9 10 20 10 27 0
86 39 134 89 37 38 41 61 11 61 -19 0 -8 28 20 55 25 24 57 90 61 125 1 14 3
25 4 25 2 0 5 17 15 93 5 36 3 57 -5 67 -7 8 -10 15 -6 15 4 0 0 13 -9 29 -11
23 -12 31 -2 34 9 4 9 6 0 6 -7 1 -13 8 -13 16 0 14 -6 16 -50 19 -8 1 -17 11
-20 22 -4 17 -12 21 -38 19 -18 -1 -39 -8 -47 -15 -10 -8 -15 -9 -15 -2 0 6
-16 2 -35 -9 -19 -12 -35 -18 -35 -15 0 4 -14 -1 -30 -9 -17 -9 -35 -13 -40
-10 -6 3 -10 -1 -10 -9 0 -9 -5 -16 -11 -16 -5 0 -7 -4 -4 -10 3 -5 -2 -10
-12 -10 -17 -1 -62 -54 -92 -109 -8 -14 -18 -29 -23 -32 -5 -3 -8 -10 -7 -15
1 -5 0 -12 -1 -16 -1 -5 -4 -12 -5 -18 -1 -5 -3 -11 -5 -12 -2 -3 -7 -25 -16
-73 -9 -45 -10 -135 -2 -135 4 0 5 -8 4 -17 -2 -10 1 -29 7 -43 11 -28 16 -44
22 -80 2 -14 5 -25 6 -25 1 0 2 -14 3 -30 1 -17 5 -36 9 -42 10 -16 5 -67 -8
-75 -7 -5 -6 -8 2 -8 6 0 9 -9 6 -20 -3 -11 -10 -20 -15 -20 -5 0 -18 -10 -27
-21 l-18 -22 -22 32 c-12 17 -19 31 -14 31 4 0 0 5 -9 11 -10 5 -18 15 -18 22
0 7 -12 21 -27 32 -45 33 -74 66 -68 76 4 5 -1 9 -10 9 -9 0 -14 4 -10 9 3 5
1 12 -4 16 -6 3 -8 12 -4 20 3 8 0 15 -7 15 -6 0 -8 5 -5 10 3 6 2 10 -3 10
-6 0 -13 11 -16 25 -4 14 -11 25 -16 25 -6 0 -10 6 -10 14 0 13 -14 31 -102
124 -27 29 -46 56 -43 61 3 5 1 13 -5 16 -7 4 -7 12 -2 18 5 7 9 27 11 46 1
19 6 40 11 46 6 7 5 16 -2 23 -8 8 -8 12 -1 12 6 0 13 9 16 20 3 11 12 20 21
20 9 0 16 6 16 14 0 8 7 21 15 30 9 8 16 18 15 21 0 3 0 6 1 8 0 1 2 10 4 20
5 25 33 67 45 67 6 0 9 6 7 13 -3 16 42 11 63 -8 9 -8 22 -15 28 -15 7 0 12
-4 12 -10 0 -5 8 -10 18 -10 10 0 23 -5 29 -11 6 -6 17 -12 24 -13 8 -2 21 -6
30 -10 9 -4 34 -6 55 -4 33 3 39 6 38 26 0 12 4 22 10 22 6 0 4 5 -4 10 -10 6
-11 10 -2 10 6 0 12 9 12 19 0 21 23 34 37 20 14 -14 91 -18 107 -5 22 16 29
201 9 218 -9 7 -10 15 -4 21 6 6 5 15 -5 24 -8 8 -12 19 -9 24 4 5 1 9 -5 9
-6 0 -8 5 -5 10 3 6 14 7 23 2 20 -9 63 -8 117 3 22 5 47 9 56 10 17 1 37 15
79 58 16 15 33 27 39 27 6 0 8 7 5 15 -4 8 1 17 9 21 9 3 14 14 12 25 -2 11 2
22 10 25 19 8 11 51 -15 74 -21 18 -21 20 -6 51 22 43 20 70 -4 76 -10 3 -22
13 -25 22 -6 19 -75 66 -92 63 -7 -2 -13 1 -13 6 0 5 -16 9 -35 10 -19 1 -44
6 -55 12 -12 6 -28 10 -38 9 -52 -5 -113 2 -106 12 10 17 12 102 2 122 -5 9
-5 17 0 17 5 0 9 7 9 15 0 8 -3 15 -6 15 -3 0 -6 17 -7 39 -2 69 -80 195 -107
173 -7 -6 -18 -7 -25 -3 -16 9 -75 7 -94 -4 -7 -5 -10 -5 -6 0 4 4 -3 16 -15
26 -15 13 -18 18 -7 19 24 0 -3 18 -35 23 -18 2 -42 -3 -59 -14z m-588 -1110
c-3 -13 50 -31 64 -23 10 6 10 6 -1 -31 -8 -29 8 -63 23 -48 3 4 6 1 6 -6 0
-7 6 -11 14 -8 7 3 18 1 23 -4 6 -6 35 -10 64 -10 51 -1 63 1 116 17 18 5 22
2 20 -14 0 -11 -5 -18 -9 -16 -4 3 -9 -7 -10 -23 -2 -41 -3 -47 -11 -60 -4 -6
-3 -14 3 -18 7 -4 8 -80 0 -80 -1 0 -3 -12 -4 -27 -1 -16 1 -28 4 -28 3 0 5
-13 5 -30 0 -16 -3 -30 -7 -30 -5 0 -8 -8 -9 -17 0 -14 -3 -13 -11 5 -6 12
-15 22 -19 22 -18 0 -57 47 -68 82 -7 21 -17 40 -22 44 -5 3 -7 10 -4 15 4 5
1 9 -4 9 -6 0 -11 6 -11 13 0 7 -9 19 -21 27 -11 8 -28 29 -36 45 -9 17 -22
34 -29 38 -8 4 -14 13 -14 20 0 7 -9 18 -19 24 -11 7 -22 26 -26 43 -4 16 -11
30 -17 30 -6 0 -8 3 -5 6 3 4 2 15 -4 25 -7 15 -6 19 6 19 8 0 14 -5 13 -11z
m992 -1728 c0 -6 14 -18 30 -28 40 -23 38 -35 -7 -32 -51 4 -81 18 -62 30 8 4
15 13 15 19 2 18 4 20 14 20 6 0 10 -4 10 -9z m3776 -1806 c22 -21 25 -27 14
-40 -7 -8 -19 -15 -26 -15 -15 0 -15 -21 0 -31 5 -4 -19 -34 -53 -68 -48 -48
-68 -61 -92 -61 -16 0 -40 -7 -53 -16 -13 -8 -26 -11 -29 -7 -3 5 -23 8 -44 7
-45 -3 -61 8 -58 38 4 40 26 88 42 88 8 0 12 4 9 8 -7 11 39 52 58 52 7 0 27
7 45 16 27 14 46 17 119 23 7 1 11 5 8 10 -6 8 7 18 26 20 4 1 19 -10 34 -24z"/>
</g>
</svg>
